<svg xmlns="http://www.w3.org/2000/svg" xmlns:xlink="http://www.w3.org/1999/xlink" width="1200" height="1200" viewBox="0 0 512 512" fill="none" class="h-full w-full" id="iconWithBackground"><rect id="r4" width="512" height="512" x="0" y="0" rx="80" fill="#18A058FF" stroke="#000000" stroke-width="0" stroke-opacity="100%" paint-order="stroke"/><rect width="512" height="512" x="0" y="0" fill="url(#glare)" rx="80" style="mix-blend-mode: overlay;"/><defs><linearGradient id="linearGradient-iconWithBackground" gradientUnits="userSpaceOnUse" gradientTransform="rotate(0)" style="transform-origin:center center"><stop stop-color="#b1c381"/><stop offset="1" stop-color="#9bb8cd"/></linearGradient><radialGradient id="glare" cx="0" cy="0" r="1" gradientUnits="userSpaceOnUse" gradientTransform="translate(256) rotate(90) scale(512)"><stop stop-color="white"/><stop offset="1" stop-color="white" stop-opacity="0"/></radialGradient><clipPath id="clip"><use xlink:href="#r4"/></clipPath></defs><svg xmlns="http://www.w3.org/2000/svg" width="340" height="340" viewBox="0 0 24 24" x="86" y="86"><path fill="#ffffff" d="M20.245 4.004c.967 0 1.75.784 1.75 1.75V18.25a1.75 1.75 0 0 1-1.75 1.75h-7.247c-.087 0-.172-.006-.256-.018V4.023c.083-.012.169-.019.256-.019h7.247Zm-9.247-.002a1.8 1.8 0 0 1 .245.017V19.98a1.8 1.8 0 0 1-.245.017H3.75A1.75 1.75 0 0 1 2 18.247V5.752c0-.967.784-1.75 1.75-1.75h7.248Zm4.704 9.4a.75.75 0 0 0-1.06 1.04l.073.084l2.253 2.296l.084.074c.266.2.636.2.902 0l.085-.075l2.25-2.295l.071-.085a.75.75 0 0 0-1.06-1.039l-.083.074l-1.714 1.75l-1.718-1.75l-.083-.074Zm2.337-6.176a.75.75 0 0 0-.987-.075l-.084.074l-2.253 2.296a.75.75 0 0 0 .987 1.124l.083-.073l1.718-1.75l1.714 1.75a.75.75 0 0 0 1.143-.966l-.071-.084l-2.25-2.296Z"/></svg></svg>